<svg version="1.1" id="Layer_1" xmlns="http://www.w3.org/2000/svg" xmlns:xlink="http://www.w3.org/1999/xlink" x="0px" y="0px"
	 width="100%" viewBox="0 0 850 491" enable-background="new 0 0 850 491" xml:space="preserve">
<path fill="none" opacity="1.000000" stroke="#000000" stroke-linecap="round" stroke-linejoin="round" stroke-width="3.000000"
	d="
M11.000000,139.000000 
	C34.667839,139.000000 58.335682,139.000000 82.250000,139.000000 
	C82.250000,131.174240 82.250000,123.837120 82.250000,116.000000 
	C58.500000,116.000000 34.500000,116.000000 10.250000,116.000000 
	C10.250000,167.833328 10.250000,219.166672 10.250000,271.000000 
	C50.498611,271.000000 90.501389,271.000000 131.000000,271.000000 
	C131.000000,288.496735 131.000000,305.503265 131.000000,323.000000 
	C141.994705,323.000000 152.497360,323.000000 163.000000,323.000000 
	C186.666672,323.000000 210.333328,323.000000 234.000000,323.000000 
	C252.833328,323.000000 271.666687,322.981201 290.499939,323.025909 
	C292.647461,323.031006 294.335236,322.783722 296.055328,321.055054 
	C326.645752,290.312531 357.312531,259.645752 388.055054,229.055328 
	C389.783691,227.335251 390.028259,225.647293 390.025421,223.499969 
	C389.987457,194.833344 390.000000,166.166672 390.000000,137.500000 
	C390.000000,114.166664 390.000000,90.833336 390.000000,67.500000 
	C390.000000,58.496914 390.000000,49.493828 390.000000,40.000000 
	C367.169159,40.000000 344.830841,40.000000 322.000000,40.000000 
	C322.000000,29.505556 322.000000,19.494446 322.000000,9.500000 
	C240.500000,9.500000 159.500000,9.500000 78.000000,9.500000 
	C78.000000,44.665089 78.000000,79.832542 78.000000,115.000000 
"/>
<path fill="none" opacity="1.000000" stroke="#000000" stroke-linecap="round" stroke-linejoin="round" stroke-width="3.000000"
	d="
M809.000000,396.000000 
	C809.000000,369.832275 809.000000,343.664551 809.000000,317.000000 
	C806.844055,317.000000 805.172058,317.000000 803.500000,317.000000 
	C772.166687,317.000000 740.826660,317.408173 709.501709,316.895294 
	C671.498413,316.273132 633.493958,317.076141 595.501770,316.401215 
	C564.331177,315.847412 533.166199,316.265106 501.999786,316.029358 
	C499.984161,316.014099 498.477448,315.610992 496.935486,314.064331 
	C493.609375,310.728149 490.751373,306.836182 485.958069,304.068268 
	C460.622040,328.982697 437.051422,355.712402 410.942932,380.942413 
	C412.301178,382.300903 413.160797,383.140503 413.998474,384.001495 
	C425.834076,396.165924 437.873749,408.140320 449.442566,420.553528 
	C461.341064,433.320343 473.421326,445.909637 485.380157,458.612823 
	C491.686096,465.311310 498.258087,471.753387 504.416046,478.575775 
	C506.405029,480.779327 508.453247,481.020782 511.000000,481.019653 
	C569.000000,480.994110 627.000000,481.000000 685.000000,481.000000 
	C736.833313,481.000000 788.666687,481.000000 840.500000,481.000000 
	C842.183350,481.000000 843.866638,481.000000 845.750000,481.000000 
	C845.750000,452.833344 845.750000,425.166656 845.750000,397.000000 
	C813.166687,397.000000 780.833313,397.000000 748.000000,397.000000 
	C748.000000,424.997986 748.000000,452.498993 748.000000,480.000000 
"/>
<path fill="none" opacity="1.000000" stroke="#000000" stroke-linecap="round" stroke-linejoin="round" stroke-width="3.000000"
	d="
M560.500000,317.000000 
	C559.398254,321.968842 560.120178,327.001373 560.038269,332.000641 
	C559.899048,340.501617 560.000000,349.006531 560.000000,358.000000 
	C642.999329,358.000000 725.499634,358.000000 808.000000,358.000000 
"/>
<path fill="none" opacity="1.000000" stroke="#000000" stroke-linecap="round" stroke-linejoin="round" stroke-width="3.000000"
	d="
M690.000000,480.000000 
	C690.000000,465.498077 690.000000,450.996155 690.000000,436.250000 
	C634.833313,436.250000 580.166687,436.250000 525.000000,436.250000 
	C525.000000,450.996155 525.000000,465.498077 525.000000,480.000000 
"/>
<path fill="none" opacity="1.000000" stroke="#000000" stroke-linecap="round" stroke-linejoin="round" stroke-width="3.000000"
	d="
M326.000000,258.500000 
	C330.833344,253.833328 335.666077,249.166077 340.500549,244.500565 
	C341.355133,243.675827 342.068359,242.953705 342.053528,241.499451 
	C341.951691,231.497711 342.000000,221.494446 342.000000,211.250000 
	C336.166656,211.250000 330.833344,211.250000 325.000000,211.250000 
	C325.000000,224.162277 324.978577,236.831207 325.015717,249.499954 
	C325.024536,252.503143 324.645203,255.538223 325.500000,258.500000 
"/>
<path fill="none" opacity="1.000000" stroke="#000000" stroke-linecap="round" stroke-linejoin="round" stroke-width="3.000000"
	d="
M341.500000,133.000000 
	C342.608154,123.000000 341.635620,113.000000 342.151459,102.750000 
	C336.177094,102.750000 330.838531,102.750000 325.250000,102.750000 
	C325.250000,132.500000 325.250000,162.500000 325.250000,192.500000 
	C330.833344,192.500000 336.166656,192.500000 342.000000,192.500000 
	C342.000000,184.673721 342.000000,176.836853 342.000000,169.000000 
	C342.000000,158.500000 342.028290,147.999832 341.964447,137.500214 
	C341.956390,136.177979 342.558014,134.721909 341.500000,133.500000 
"/>
<path fill="none" opacity="1.000000" stroke="#000000" stroke-linecap="round" stroke-linejoin="round" stroke-width="3.000000"
	d="
M389.000000,62.000000 
	C366.832092,62.000000 344.664154,62.000000 322.250000,62.000000 
	C322.250000,68.166664 322.250000,73.833336 322.250000,80.000000 
	C338.496521,80.000000 354.498260,80.000000 370.500000,80.000000 
"/>
<path fill="none" opacity="1.000000" stroke="#000000" stroke-linecap="round" stroke-linejoin="round" stroke-width="4.000000"
	d="
M371.500000,63.000000 
	C371.500000,108.500000 371.500000,154.000000 371.500000,200.000000 
	C377.325287,200.000000 383.162628,200.000000 389.000000,200.000000 
"/>
<path fill="none" opacity="1.000000" stroke="#000000" stroke-linecap="round" stroke-linejoin="round" stroke-width="3.000000"
	d="
M191.500000,244.000000 
	C190.395737,252.833328 191.325958,261.666656 190.882004,270.750000 
	C203.833328,270.750000 216.166672,270.750000 228.750000,270.750000 
	C228.750000,191.666672 228.750000,112.833336 228.750000,33.750000 
	C216.337906,33.750000 204.168945,33.750000 191.746780,33.750000 
	C190.539444,34.941223 191.014450,36.786690 191.013000,38.500011 
	C190.993591,61.499996 191.000000,84.500000 191.000000,107.500000 
	C191.000000,124.666664 191.000000,141.833328 191.000000,159.000000 
	C191.000000,185.166672 190.989105,211.333344 191.021591,237.499969 
	C191.024078,239.500183 191.333328,241.500000 191.500000,243.500000 
"/>
<path fill="none" opacity="1.000000" stroke="#000000" stroke-linecap="round" stroke-linejoin="round" stroke-width="3.000000"
	d="
M312.000000,303.500000 
	C310.396790,302.698730 308.674438,303.013092 307.000000,303.011627 
	C286.333344,302.993805 265.666656,303.000000 245.000000,303.000000 
	C231.833328,303.000000 218.666672,303.000000 205.500000,303.000000 
	C181.000000,303.000000 156.500000,303.000000 132.000000,303.000000 
"/>
<path fill="none" opacity="1.000000" stroke="#000000" stroke-linecap="round" stroke-linejoin="round" stroke-width="3.000000"
	d="
M138.000000,34.000000 
	C131.862000,32.772583 125.658508,33.968498 119.250000,33.368824 
	C119.250000,104.166664 119.250000,174.833328 119.250000,245.750000 
	C131.500000,245.750000 143.500000,245.750000 155.750000,245.750000 
	C155.750000,174.833328 155.750000,104.166664 155.750000,33.500000 
	C149.833328,33.500000 144.166672,33.500000 138.500000,33.500000 
"/>
<path fill="none" opacity="1.000000" stroke="#000000" stroke-linecap="round" stroke-linejoin="round" stroke-width="3.000000"
	d="
M281.500000,60.500000 
	C275.333344,60.500000 269.166656,60.500000 262.500000,60.500000 
	C262.500000,130.498016 262.500000,200.498413 262.500000,270.750000 
	C274.833344,270.750000 287.166656,270.750000 299.750000,270.750000 
	C299.750000,200.666672 299.750000,130.833328 299.750000,60.500000 
	C293.676178,60.500000 287.838104,60.500000 282.000000,60.500000 
"/>
<path fill="none" opacity="1.000000" stroke="#000000" stroke-linecap="round" stroke-linejoin="round" stroke-width="3.000000"
	d="
M38.500000,220.000000 
	C37.354877,228.500000 38.350163,237.000000 37.911354,245.750000 
	C51.500000,245.750000 64.500000,245.750000 77.750000,245.750000 
	C77.750000,219.500000 77.750000,193.500000 77.750000,167.250000 
	C64.500000,167.250000 51.500000,167.250000 38.000000,167.250000 
	C38.000000,173.490738 38.000000,179.495377 38.000000,185.500000 
	C38.000000,195.000000 37.973995,204.500137 38.022598,213.999878 
	C38.031979,215.834015 38.333336,217.666672 38.500000,219.500000 
"/>
<path fill="none" opacity="1.000000" stroke="#000000" stroke-linecap="round" stroke-linejoin="round" stroke-width="3.000000"
	d="
M429.999969,364.000031 
	C443.499969,377.500031 456.999969,391.000031 469.357635,403.357697 
	C463.571350,409.738892 457.785675,416.119446 452.000000,422.500000 
"/>
<path fill="none" opacity="1.000000" stroke="#000000" stroke-linecap="round" stroke-linejoin="round" stroke-width="3.000000"
	d="
M599.500000,397.000000 
	C600.591187,391.166656 599.666870,385.333344 600.128967,379.250000 
	C588.000000,379.250000 576.500000,379.250000 564.750000,379.250000 
	C564.750000,390.995178 564.750000,402.497589 564.750000,414.500000 
	C576.154785,414.500000 587.823792,414.500000 600.120911,414.500000 
	C599.618896,408.833344 600.654419,403.166656 599.500000,397.500000 
"/>
<path fill="none" opacity="1.000000" stroke="#000000" stroke-linecap="round" stroke-linejoin="round" stroke-width="3.000000"
	d="
M708.500000,397.500000 
	C709.558777,403.166656 708.724365,408.833344 709.081238,414.750000 
	C680.333313,414.750000 652.166687,414.750000 623.750000,414.750000 
	C623.750000,403.004822 623.750000,391.502411 623.750000,379.500000 
	C651.828430,379.500000 680.162720,379.500000 709.101196,379.500000 
	C708.691589,385.333344 709.583862,391.166656 708.500000,397.000000 
"/>
<path fill="none" opacity="1.000000" stroke="#000000" stroke-linecap="round" stroke-linejoin="round" stroke-width="2.000000"
	d="
M281.500000,61.000000 
	C281.500000,87.000000 281.500000,113.000000 281.500000,139.000000 
"/>
<path fill="none" opacity="1.000000" stroke="#000000" stroke-linecap="round" stroke-linejoin="round" stroke-width="3.000000"
	d="
M58.000000,168.000000 
	C58.000000,193.666672 58.000000,219.333328 58.000000,245.000000 
"/>
<path fill="none" opacity="1.000000" stroke="#000000" stroke-linecap="round" stroke-linejoin="round" stroke-width="2.000000"
	d="
M282.000000,140.000000 
	C280.956573,143.458252 281.539032,147.003326 281.532349,150.500061 
	C281.475708,180.166626 281.500000,209.833328 281.500000,239.500000 
	C281.500000,248.000000 281.485748,256.500031 281.512146,264.999969 
	C281.517365,266.674591 281.198730,268.396790 282.000000,270.000000 
"/>
<path fill="none" opacity="1.000000" stroke="#000000" stroke-linecap="round" stroke-linejoin="round" stroke-width="3.000000"
	d="
M138.000000,34.500000 
	C138.000000,104.666664 138.000000,174.833328 138.000000,245.000000 
"/>
<path fill="none" opacity="1.000000" stroke="#000000" stroke-linecap="round" stroke-linejoin="round" stroke-width="2.000000"
	d="
M210.500000,34.000000 
	C210.500000,66.833336 210.500000,99.666664 210.500000,132.500000 
	C210.500000,167.500000 210.500000,202.500000 210.500000,237.500000 
	C210.500000,246.666672 210.486710,255.833359 210.512131,264.999969 
	C210.516769,266.674591 210.198730,268.396790 211.000000,270.000000 
"/>
<path fill="none" opacity="1.000000" stroke="#000000" stroke-linecap="round" stroke-linejoin="round" stroke-width="3.000000"
	d="
M34.000000,117.000000 
	C34.285648,123.997169 33.393303,131.022385 34.500000,138.000000 
"/>
<path fill="none" opacity="1.000000" stroke="#000000" stroke-linecap="round" stroke-linejoin="round" stroke-width="3.000000"
	d="
M62.000000,117.000000 
	C62.000000,124.000000 62.000000,131.000000 62.000000,138.000000 
"/>
<path fill="none" opacity="1.000000" stroke="#000000" stroke-linecap="round" stroke-linejoin="round" stroke-width="3.000000"
	d="
M281.500000,246.000000 
	C275.333344,246.000000 269.166656,246.000000 263.000000,246.000000 
"/>
<path fill="none" opacity="1.000000" stroke="#000000" stroke-linecap="round" stroke-linejoin="round" stroke-width="3.000000"
	d="
M281.500000,114.000000 
	C275.333344,114.000000 269.166656,114.000000 263.000000,114.000000 
"/>
<path fill="none" opacity="1.000000" stroke="#000000" stroke-linecap="round" stroke-linejoin="round" stroke-width="3.000000"
	d="
M192.000000,243.500000 
	C200.146301,244.664337 208.334610,243.749222 216.501343,243.943527 
	C220.323685,244.034485 224.204575,244.538437 228.000000,243.500000 
"/>
<path fill="none" opacity="1.000000" stroke="#000000" stroke-linecap="round" stroke-linejoin="round" stroke-width="3.000000"
	d="
M192.000000,138.500000 
	C200.146301,139.664337 208.334610,138.749222 216.501343,138.943527 
	C220.323685,139.034485 224.204575,139.538437 228.000000,138.500000 
"/>
<path fill="none" opacity="1.000000" stroke="#000000" stroke-linecap="round" stroke-linejoin="round" stroke-width="4.000000"
	d="
M77.000000,192.500000 
	C64.333336,192.500000 51.666668,192.500000 39.000000,192.500000 
"/>
<path fill="none" opacity="1.000000" stroke="#000000" stroke-linecap="round" stroke-linejoin="round" stroke-width="4.000000"
	d="
M77.000000,219.500000 
	C64.333336,219.500000 51.666668,219.500000 39.000000,219.500000 
"/>
<path fill="none" opacity="1.000000" stroke="#000000" stroke-linecap="round" stroke-linejoin="round" stroke-width="3.000000"
	d="
M263.000000,165.500000 
	C271.146301,166.664337 279.334625,165.749222 287.501343,165.943527 
	C291.323700,166.034485 295.204559,166.538437 299.000000,165.500000 
"/>
<path fill="none" opacity="1.000000" stroke="#000000" stroke-linecap="round" stroke-linejoin="round" stroke-width="3.000000"
	d="
M210.500000,87.000000 
	C204.333328,87.000000 198.166672,87.000000 192.000000,87.000000 
"/>
<path fill="none" opacity="1.000000" stroke="#000000" stroke-linecap="round" stroke-linejoin="round" stroke-width="3.000000"
	d="
M192.000000,165.500000 
	C200.146301,166.664337 208.334610,165.749222 216.501343,165.943527 
	C220.323685,166.034485 224.204575,166.538437 228.000000,165.500000 
"/>
<path fill="none" opacity="1.000000" stroke="#000000" stroke-linecap="round" stroke-linejoin="round" stroke-width="4.000000"
	d="
M228.000000,112.500000 
	C216.000000,112.500000 204.000000,112.500000 192.000000,112.500000 
"/>
<path fill="none" opacity="1.000000" stroke="#000000" stroke-linecap="round" stroke-linejoin="round" stroke-width="4.000000"
	d="
M228.000000,192.500000 
	C216.000000,192.500000 204.000000,192.500000 192.000000,192.500000 
"/>
<path fill="none" opacity="1.000000" stroke="#000000" stroke-linecap="round" stroke-linejoin="round" stroke-width="4.000000"
	d="
M228.000000,60.500000 
	C216.000000,60.500000 204.000000,60.500000 192.000000,60.500000 
"/>
<path fill="none" opacity="1.000000" stroke="#000000" stroke-linecap="round" stroke-linejoin="round" stroke-width="4.000000"
	d="
M299.000000,192.500000 
	C287.000000,192.500000 275.000000,192.500000 263.000000,192.500000 
"/>
<path fill="none" opacity="1.000000" stroke="#000000" stroke-linecap="round" stroke-linejoin="round" stroke-width="3.000000"
	d="
M266.000000,304.000000 
	C266.000000,310.000000 266.000000,316.000000 266.000000,322.000000 
"/>
<path fill="none" opacity="1.000000" stroke="#000000" stroke-linecap="round" stroke-linejoin="round" stroke-width="4.000000"
	d="
M239.500000,304.000000 
	C239.500000,310.000000 239.500000,316.000000 239.500000,322.000000 
"/>
<path fill="none" opacity="1.000000" stroke="#000000" stroke-linecap="round" stroke-linejoin="round" stroke-width="3.000000"
	d="
M211.000000,304.000000 
	C211.000000,310.000000 211.000000,316.000000 211.000000,322.000000 
"/>
<path fill="none" opacity="1.000000" stroke="#000000" stroke-linecap="round" stroke-linejoin="round" stroke-width="4.000000"
	d="
M185.500000,304.000000 
	C185.500000,310.000000 185.500000,316.000000 185.500000,322.000000 
"/>
<path fill="none" opacity="1.000000" stroke="#000000" stroke-linecap="round" stroke-linejoin="round" stroke-width="4.000000"
	d="
M158.500000,304.000000 
	C158.500000,310.000000 158.500000,316.000000 158.500000,322.000000 
"/>
<path fill="none" opacity="1.000000" stroke="#000000" stroke-linecap="round" stroke-linejoin="round" stroke-width="4.000000"
	d="
M299.000000,219.500000 
	C287.000000,219.500000 275.000000,219.500000 263.000000,219.500000 
"/>
<path fill="none" opacity="1.000000" stroke="#000000" stroke-linecap="round" stroke-linejoin="round" stroke-width="3.000000"
	d="
M228.000000,219.000000 
	C216.000000,219.000000 204.000000,219.000000 192.000000,219.000000 
"/>
<path fill="none" opacity="1.000000" stroke="#000000" stroke-linecap="round" stroke-linejoin="round" stroke-width="3.000000"
	d="
M299.000000,139.500000 
	C290.687317,138.300705 282.331665,139.339157 273.997955,139.061707 
	C270.347076,138.940170 266.627472,138.471298 263.000000,139.500000 
"/>
<path fill="none" opacity="1.000000" stroke="#000000" stroke-linecap="round" stroke-linejoin="round" stroke-width="4.000000"
	d="
M299.000000,87.500000 
	C287.000000,87.500000 275.000000,87.500000 263.000000,87.500000 
"/>
<path fill="none" opacity="1.000000" stroke="#000000" stroke-linecap="round" stroke-linejoin="round" stroke-width="3.000000"
	d="
M155.000000,219.000000 
	C143.333328,219.000000 131.666672,219.000000 120.000000,219.000000 
"/>
<path fill="none" opacity="1.000000" stroke="#000000" stroke-linecap="round" stroke-linejoin="round" stroke-width="3.000000"
	d="
M155.000000,139.000000 
	C143.333328,139.000000 131.666672,139.000000 120.000000,139.000000 
"/>
<path fill="none" opacity="1.000000" stroke="#000000" stroke-linecap="round" stroke-linejoin="round" stroke-width="4.000000"
	d="
M155.000000,192.500000 
	C143.333328,192.500000 131.666672,192.500000 120.000000,192.500000 
"/>
<path fill="none" opacity="1.000000" stroke="#000000" stroke-linecap="round" stroke-linejoin="round" stroke-width="4.000000"
	d="
M155.000000,112.500000 
	C143.333328,112.500000 131.666672,112.500000 120.000000,112.500000 
"/>
<path fill="none" opacity="1.000000" stroke="#000000" stroke-linecap="round" stroke-linejoin="round" stroke-width="3.000000"
	d="
M155.000000,87.000000 
	C143.333328,87.000000 131.666672,87.000000 120.000000,87.000000 
"/>
<path fill="none" opacity="1.000000" stroke="#000000" stroke-linecap="round" stroke-linejoin="round" stroke-width="3.000000"
	d="
M155.000000,166.000000 
	C143.333328,166.000000 131.666672,166.000000 120.000000,166.000000 
"/>
<path fill="none" opacity="1.000000" stroke="#000000" stroke-linecap="round" stroke-linejoin="round" stroke-width="4.000000"
	d="
M155.000000,60.500000 
	C143.333328,60.500000 131.666672,60.500000 120.000000,60.500000 
"/>
<path fill="none" opacity="1.000000" stroke="#000000" stroke-linecap="round" stroke-linejoin="round" stroke-width="3.000000"
	d="
M675.000000,380.000000 
	C675.000000,391.333344 675.000000,402.666656 675.000000,414.000000 
"/>
<path fill="none" opacity="1.000000" stroke="#000000" stroke-linecap="round" stroke-linejoin="round" stroke-width="3.000000"
	d="
M692.000000,380.000000 
	C692.000000,391.333344 692.000000,402.666656 692.000000,414.000000 
"/>
<path fill="none" opacity="1.000000" stroke="#000000" stroke-linecap="round" stroke-linejoin="round" stroke-width="3.000000"
	d="
M372.500000,167.000000 
	C378.000000,167.000000 383.500000,167.000000 389.000000,167.000000 
"/>
<path fill="none" opacity="1.000000" stroke="#000000" stroke-linecap="round" stroke-linejoin="round" stroke-width="3.000000"
	d="
M599.000000,397.000000 
	C587.833313,397.000000 576.666687,397.000000 565.500000,397.000000 
"/>
<path fill="none" opacity="1.000000" stroke="#000000" stroke-linecap="round" stroke-linejoin="round" stroke-width="3.000000"
	d="
M708.000000,397.000000 
	C680.166687,397.000000 652.333313,397.000000 624.500000,397.000000 
"/>
<path fill="none" opacity="1.000000" stroke="#000000" stroke-linecap="round" stroke-linejoin="round" stroke-width="3.000000"
	d="
M582.000000,380.000000 
	C582.000000,391.333344 582.000000,402.666656 582.000000,414.000000 
"/>
<path fill="none" opacity="1.000000" stroke="#000000" stroke-linecap="round" stroke-linejoin="round" stroke-width="3.000000"
	d="
M640.000000,380.000000 
	C640.000000,391.333344 640.000000,402.666656 640.000000,414.000000 
"/>
<path fill="none" opacity="1.000000" stroke="#000000" stroke-linecap="round" stroke-linejoin="round" stroke-width="3.000000"
	d="
M211.500000,86.500000 
	C216.971390,87.610588 222.503876,86.705681 228.000000,87.000000 
"/>
<path fill="none" opacity="1.000000" stroke="#000000" stroke-linecap="round" stroke-linejoin="round" stroke-width="2.000000"
	d="
M657.000000,380.000000 
	C657.827576,391.333344 657.827576,402.666656 657.000000,414.000000 
"/>
<path fill="none" opacity="1.000000" stroke="#000000" stroke-linecap="round" stroke-linejoin="round" stroke-width="3.000000"
	d="
M372.500000,133.000000 
	C378.000000,133.000000 383.500000,133.000000 389.000000,133.000000 
"/>
<path fill="none" opacity="1.000000" stroke="#000000" stroke-linecap="round" stroke-linejoin="round" stroke-width="3.000000"
	d="
M282.500000,245.500000 
	C287.971405,246.610580 293.503876,245.705688 299.000000,246.000000 
"/>
<path fill="none" opacity="1.000000" stroke="#000000" stroke-linecap="round" stroke-linejoin="round" stroke-width="3.000000"
	d="
M282.500000,113.500000 
	C287.971405,114.610588 293.503876,113.705681 299.000000,114.000000 
"/>
<path fill="none" opacity="1.000000" stroke="#000000" stroke-linecap="round" stroke-linejoin="round" stroke-width="4.000000"
	d="
M349.500000,63.000000 
	C349.500000,68.333336 349.500000,73.666664 349.500000,79.000000 
"/>
<path fill="none" opacity="1.000000" stroke="#000000" stroke-linecap="round" stroke-linejoin="round" stroke-width="2.000000"
	d="
M326.000000,132.500000 
	C330.995819,132.791748 336.031158,131.898270 341.000000,133.000000 
"/>
<path fill="none" opacity="1.000000" stroke="#000000" stroke-linecap="round" stroke-linejoin="round" stroke-width="2.000000"
	d="
M341.000000,162.000000 
	C336.031158,163.101730 330.995819,162.208252 326.000000,162.500000 
"/>
</svg>