<svg version="1.1" id="Layer_1" xmlns="http://www.w3.org/2000/svg" xmlns:xlink="http://www.w3.org/1999/xlink" x="0px" y="0px"
	 width="100%" viewBox="0 0 843 487" enable-background="new 0 0 843 487" xml:space="preserve">
<path fill="none" opacity="1.000000" stroke="#000000" stroke-linecap="round" stroke-linejoin="round" stroke-width="4.000000"
	d="
M376.500000,9.500000 
	C252.666443,9.500000 128.832886,9.500000 4.750000,9.500000 
	C4.750000,97.333336 4.750000,184.666672 4.750000,272.500000 
	C12.325758,272.500000 19.674242,272.500000 27.500000,272.500000 
	C27.500000,288.329712 27.500000,303.670288 27.500000,319.500000 
	C29.655939,319.500000 31.327971,319.500000 33.000000,319.500000 
	C108.666664,319.500000 184.333359,319.470947 259.999908,319.563660 
	C265.191040,319.570007 268.830505,318.661377 272.731384,314.202423 
	C283.736053,301.623291 295.810486,289.977661 307.510345,278.010101 
	C312.782684,272.617126 318.166656,267.333344 323.500000,262.000000 
"/>
<path fill="none" opacity="1.000000" stroke="#000000" stroke-linecap="round" stroke-linejoin="round" stroke-width="3.000000"
	d="
M273.500000,10.500000 
	C273.500000,26.001793 273.500000,41.503586 273.500000,57.250000 
	C289.829834,57.250000 305.664917,57.250000 321.337677,57.250000 
	C322.207001,59.454971 321.997162,61.487926 321.997284,63.500000 
	C322.000610,127.000000 322.009583,190.500000 321.974579,253.999985 
	C321.972626,257.554291 322.788818,259.903687 325.814575,262.700592 
	C338.094055,274.051300 349.666656,286.166656 361.500000,298.000000 
	C363.333344,299.833344 365.166656,301.666656 367.000000,303.500000 
	C395.166656,331.666656 423.323486,359.843231 451.526001,387.973938 
	C453.112396,389.556366 455.075012,390.761597 457.423920,392.576050 
	C450.339417,399.660553 444.169708,405.830261 438.000000,412.000000 
"/>
<path fill="none" opacity="1.000000" stroke="#000000" stroke-linecap="round" stroke-linejoin="round" stroke-width="4.000000"
	d="
M554.000000,290.500000 
	C637.666992,290.500000 721.333984,290.500000 805.500000,290.500000 
	C805.500000,325.665070 805.500000,360.332520 805.500000,395.000000 
"/>
<path fill="none" opacity="1.000000" stroke="#000000" stroke-linecap="round" stroke-linejoin="round" stroke-width="4.000000"
	d="
M581.000000,291.500000 
	C581.000000,312.501312 581.000000,333.502655 581.000000,354.500000 
	C655.833313,354.500000 730.166687,354.500000 804.500000,354.500000 
"/>
<path fill="none" opacity="1.000000" stroke="#000000" stroke-linecap="round" stroke-linejoin="round" stroke-width="3.000000"
	d="
M379.000000,11.500000 
	C379.000000,74.667107 379.000000,137.834213 379.000000,201.629318 
	C379.644409,202.353363 380.759613,203.739182 382.009369,204.990646 
	C401.495972,224.504013 421.052948,243.947723 440.429504,263.569611 
	C442.716888,265.885956 444.953003,266.554199 448.000092,266.547638 
	C482.833282,266.472748 517.666687,266.500000 553.000000,266.500000 
	C553.000000,286.166656 553.000000,305.833344 553.000000,325.500000 
	C549.166687,325.500000 545.833313,325.500000 542.500000,325.500000 
	C536.500000,325.500000 529.786255,327.188934 524.695496,325.037445 
	C519.323608,322.767181 515.449036,316.884796 511.011047,312.488831 
	C502.805756,304.361145 494.541260,296.285889 486.586700,287.917603 
	C484.555023,285.780273 482.546967,285.473602 479.999939,285.479340 
	C462.500031,285.518677 444.999939,285.479828 427.500061,285.525970 
	C425.352509,285.531647 423.592926,285.381989 421.938538,283.555664 
	C418.303436,279.542786 414.333313,275.833344 410.250000,271.750031 
	C416.164337,265.835693 422.082184,259.917877 428.000031,254.000031 
"/>
<path fill="none" opacity="1.000000" stroke="#000000" stroke-linecap="round" stroke-linejoin="round" stroke-width="4.000000"
	d="
M270.000000,318.500000 
	C271.441254,319.960388 273.286652,319.485291 275.000000,319.486969 
	C295.666656,319.507111 316.398132,320.453613 336.969849,319.056122 
	C345.875610,318.451141 350.290527,321.766693 355.604980,327.400970 
	C382.376312,355.783325 409.533173,383.801636 436.488739,412.010773 
	C455.546875,431.955200 474.567902,451.936432 493.423492,472.071655 
	C496.112061,474.942657 498.854950,475.574585 502.500183,475.564056 
	C538.999878,475.458618 575.500000,475.500000 612.000000,475.500000 
	C635.666687,475.500000 659.333313,475.500000 683.000000,475.500000 
	C733.333313,475.500000 783.666687,475.500000 834.000000,475.500000 
	C835.683350,475.500000 837.366638,475.500000 839.250000,475.500000 
	C839.250000,448.835449 839.250000,422.667725 839.250000,396.000000 
	C835.179504,396.000000 830.839722,396.000000 826.500000,396.000000 
	C817.333313,396.000000 808.166687,396.000000 799.000000,396.000000 
	C793.000000,396.000000 786.286255,394.311096 781.195496,396.462585 
	C775.823608,398.732849 771.928772,404.595673 767.518127,409.018097 
	C762.108582,414.442078 756.861389,420.027618 751.486450,425.486603 
	C749.263428,427.744385 748.375610,430.234589 748.420593,433.501099 
	C748.608887,447.165161 748.500000,460.833344 748.500000,474.500000 
"/>
<path fill="none" opacity="1.000000" stroke="#000000" stroke-linecap="round" stroke-linejoin="round" stroke-width="4.000000"
	d="
M378.000000,55.500000 
	C370.329712,55.500000 362.659424,55.500000 354.750000,55.500000 
	C354.750000,99.000000 354.750000,142.000000 354.750000,185.500000 
	C362.659424,185.500000 370.329712,185.500000 378.000000,185.500000 
"/>
<path fill="none" opacity="1.000000" stroke="#000000" stroke-linecap="round" stroke-linejoin="round" stroke-width="4.000000"
	d="
M688.500000,474.500000 
	C688.500000,460.166656 688.500000,445.833344 688.500000,431.250000 
	C664.833313,431.250000 641.166687,431.250000 617.500000,431.250000 
	C617.500000,445.833344 617.500000,460.166656 617.500000,474.500000 
"/>
<path fill="none" opacity="1.000000" stroke="#000000" stroke-linecap="round" stroke-linejoin="round" stroke-width="4.000000"
	d="
M574.000000,376.500000 
	C568.166687,375.416168 562.333313,376.308411 556.750000,375.916351 
	C556.750000,388.002411 556.750000,399.504822 556.750000,411.250000 
	C568.333313,411.250000 579.666687,411.250000 591.250000,411.250000 
	C591.250000,399.504822 591.250000,388.002411 591.250000,375.948914 
	C585.833313,376.275604 580.166687,375.441223 574.500000,376.500000 
"/>
<path fill="none" opacity="1.000000" stroke="#000000" stroke-linecap="round" stroke-linejoin="round" stroke-width="4.000000"
	d="
M631.000000,376.500000 
	C625.166687,375.416168 619.333313,376.308411 613.750000,375.916351 
	C613.750000,388.002411 613.750000,399.504822 613.750000,411.250000 
	C637.333313,411.250000 660.666687,411.250000 684.250000,411.250000 
	C684.250000,399.504822 684.250000,388.002411 684.250000,376.000000 
	C673.505066,376.000000 662.498779,375.827972 651.501404,376.064087 
	C644.835327,376.207153 638.138672,375.213196 631.500000,376.500000 
"/>
<path fill="none" opacity="1.000000" stroke="#000000" stroke-linecap="round" stroke-linejoin="round" stroke-width="3.000000"
	d="
M361.000000,299.500000 
	C356.666656,303.833313 352.325500,308.158905 348.004089,312.504089 
	C346.440887,314.075897 344.581726,315.476257 344.500000,318.000000 
"/>
<path fill="none" opacity="1.000000" stroke="#000000" stroke-linecap="round" stroke-linejoin="round" stroke-width="4.000000"
	d="
M683.500000,393.500000 
	C660.500000,393.500000 637.500000,393.500000 614.500000,393.500000 
"/>
<path fill="none" opacity="1.000000" stroke="#000000" stroke-linecap="round" stroke-linejoin="round" stroke-width="3.000000"
	d="
M650.000000,377.000000 
	C650.000000,388.333344 650.000000,399.666656 650.000000,411.000000 
"/>
<path fill="none" opacity="1.000000" stroke="#000000" stroke-linecap="round" stroke-linejoin="round" stroke-width="3.000000"
	d="
M557.500000,394.000000 
	C568.500000,394.000000 579.500000,394.000000 590.500000,394.000000 
"/>
<path fill="none" opacity="1.000000" stroke="#000000" stroke-linecap="round" stroke-linejoin="round" stroke-width="3.000000"
	d="
M574.000000,377.000000 
	C574.000000,388.166656 574.000000,399.333344 574.000000,410.500000 
"/>
<path fill="none" opacity="1.000000" stroke="#000000" stroke-linecap="round" stroke-linejoin="round" stroke-width="3.000000"
	d="
M631.000000,377.000000 
	C631.000000,388.166656 631.000000,399.333344 631.000000,410.500000 
"/>
<path fill="none" opacity="1.000000" stroke="#000000" stroke-linecap="round" stroke-linejoin="round" stroke-width="3.000000"
	d="
M667.000000,377.000000 
	C667.000000,388.166656 667.000000,399.333344 667.000000,410.500000 
"/>
</svg>