<svg version="1.1" id="Layer_1" xmlns="http://www.w3.org/2000/svg" xmlns:xlink="http://www.w3.org/1999/xlink" x="0px" y="0px"
	 width="100%" viewBox="0 0 858 482" enable-background="new 0 0 858 482" xml:space="preserve">
<path fill="none" opacity="1.000000" stroke="#000000" stroke-linecap="round" stroke-linejoin="round" stroke-width="4.000000"
	d="
M818.500000,386.500000 
	C818.500000,350.332550 818.500000,314.165131 818.500000,277.500000 
	C723.667236,277.500000 629.332764,277.500000 534.500000,277.500000 
	C534.500000,269.340576 534.500000,261.659424 534.500000,253.500000 
	C532.344055,253.500000 530.672058,253.500000 529.000000,253.500000 
	C500.833344,253.500000 472.666504,253.457520 444.500214,253.560516 
	C441.414764,253.571793 439.153412,252.839935 436.951935,250.546143 
	C417.200897,229.967133 397.403809,209.430923 377.436279,189.062454 
	C373.758270,185.310577 376.083038,180.943100 375.277039,176.944168 
	C374.812927,174.641403 375.461639,171.660172 375.464661,168.999954 
	C375.514404,125.333351 375.500000,81.666664 375.500000,38.000000 
	C375.500000,28.663691 375.500000,19.327381 375.500000,9.750000 
	C251.500443,9.750000 128.000229,9.750000 4.500000,9.750000 
	C4.500000,92.833336 4.500000,176.166672 4.500000,260.000000 
	C39.165066,260.000000 73.834938,260.000000 108.750000,260.000000 
	C108.750000,277.001678 108.750000,293.503357 108.750000,310.500000 
	C110.655937,310.500000 112.327972,310.500000 114.000000,310.500000 
	C162.666672,310.500000 211.333328,310.500000 260.000000,310.500000 
	C283.666656,310.500000 307.333679,310.563019 330.999695,310.439331 
	C335.048645,310.418182 338.027496,311.300598 341.098480,314.402527 
	C372.771423,346.394623 404.666687,378.166626 436.500031,409.999969 
	C455.500031,428.999969 474.578003,447.923340 493.413879,467.084656 
	C496.163208,469.881500 498.860962,470.571625 502.500153,470.562012 
	C540.499878,470.461517 578.500000,470.500000 616.500000,470.500000 
	C694.000000,470.500000 771.500000,470.500000 849.000000,470.500000 
	C850.683350,470.500000 852.366638,470.500000 854.250000,470.500000 
	C854.250000,442.666656 854.250000,415.333344 854.250000,388.254395 
	C853.141296,386.985657 851.989624,387.531860 850.999939,387.529663 
	C832.833313,387.489136 814.666626,387.519470 796.500061,387.474060 
	C794.352539,387.468689 792.650146,387.695679 790.941406,389.442688 
	C780.558899,400.057587 769.993042,410.493073 759.510620,421.010590 
	C758.442932,422.081909 757.772644,422.945618 757.819397,425.004120 
	C758.156433,439.829773 758.000000,454.666656 758.000000,469.500000 
"/>
<path fill="none" opacity="1.000000" stroke="#000000" stroke-linecap="round" stroke-linejoin="round" stroke-width="4.000000"
	d="
M374.500000,32.500000 
	C362.664307,32.500000 350.828644,32.500000 338.750000,32.500000 
	C338.750000,81.000000 338.750000,129.000000 338.750000,177.500000 
	C350.828644,177.500000 362.664307,177.500000 374.500000,177.500000 
"/>
<path fill="none" opacity="1.000000" stroke="#000000" stroke-linecap="round" stroke-linejoin="round" stroke-width="4.000000"
	d="
M413.500000,228.000000 
	C408.648438,229.794693 406.096130,234.263077 402.544769,237.548416 
	C399.434937,240.425278 396.709442,243.717667 393.578918,247.079102 
	C402.164948,255.665085 410.652100,264.015137 418.932831,272.565033 
	C420.345123,274.023224 421.676514,273.447968 423.000153,273.451752 
	C446.166595,273.518555 469.333496,273.540192 492.499817,273.451385 
	C495.547485,273.439697 497.797333,274.094391 500.072754,276.429077 
	C511.916565,288.581299 524.212952,300.298401 535.876770,312.616669 
	C539.618347,316.568207 543.405212,318.056427 548.503723,317.536682 
	C550.660400,317.316803 552.858154,317.500000 555.500000,317.500000 
	C555.500000,304.170990 555.500000,291.335510 555.500000,278.500000 
"/>
<path fill="none" opacity="1.000000" stroke="#000000" stroke-linecap="round" stroke-linejoin="round" stroke-width="4.000000"
	d="
M697.000000,470.000000 
	C697.000000,454.831512 697.000000,439.662994 697.000000,424.750000 
	C671.998840,424.750000 647.497742,424.750000 622.500000,424.750000 
	C622.500000,439.829590 622.500000,454.664795 622.500000,469.500000 
"/>
<path fill="none" opacity="1.000000" stroke="#000000" stroke-linecap="round" stroke-linejoin="round" stroke-width="4.000000"
	d="
M264.500000,287.500000 
	C219.999374,287.500000 175.498749,287.500000 130.750000,287.500000 
	C130.750000,277.333344 130.750000,267.666656 130.750000,257.500000 
	C132.655945,257.500000 134.327972,257.500000 136.000000,257.500000 
	C157.500000,257.500000 179.000000,257.500000 200.500000,257.500000 
	C239.833328,257.500000 279.167267,257.602509 318.499237,257.370667 
	C323.433136,257.341644 327.176270,258.609070 330.509033,261.991089 
	C344.654388,276.345428 358.840942,290.659180 372.990265,305.009613 
	C374.728394,306.772461 376.261627,308.738312 378.010712,310.489288 
	C406.162170,338.671173 434.333282,366.833374 462.744141,395.244232 
	C456.161011,401.497803 449.580505,407.748901 443.000000,414.000000 
"/>
<path fill="none" opacity="1.000000" stroke="#000000" stroke-linecap="round" stroke-linejoin="round" stroke-width="4.000000"
	d="
M586.499939,278.500000 
	C586.666626,280.333344 586.974548,282.166382 586.978149,284.000031 
	C587.014160,302.333313 586.992798,320.666656 587.011108,339.000000 
	C587.012939,340.836761 587.169312,342.673370 587.253540,344.500000 
	C664.166687,344.500000 740.833313,344.500000 817.500000,344.500000 
"/>
<path fill="none" opacity="1.000000" stroke="#000000" stroke-linecap="round" stroke-linejoin="round" stroke-width="4.000000"
	d="
M58.500000,10.500000 
	C58.500000,86.667030 58.500000,162.834061 58.500000,239.500000 
	C40.336479,239.500000 22.668240,239.500000 5.000000,239.500000 
"/>
<path fill="none" opacity="1.000000" stroke="#000000" stroke-linecap="round" stroke-linejoin="round" stroke-width="3.000000"
	d="
M247.500000,10.500000 
	C247.500000,27.833334 247.500000,45.166668 247.500000,63.000000 
	C184.834213,63.000000 122.167107,63.000000 59.500000,63.000000 
"/>
<path fill="none" opacity="1.000000" stroke="#000000" stroke-linecap="round" stroke-linejoin="round" stroke-width="4.000000"
	d="
M693.500000,278.500000 
	C693.500000,300.166656 693.500000,321.833344 693.500000,343.500000 
"/>
<path fill="none" opacity="1.000000" stroke="#000000" stroke-linecap="round" stroke-linejoin="round" stroke-width="4.000000"
	d="
M630.500000,278.500000 
	C630.500000,300.166656 630.500000,321.833344 630.500000,343.500000 
"/>
<path fill="none" opacity="1.000000" stroke="#000000" stroke-linecap="round" stroke-linejoin="round" stroke-width="3.000000"
	d="
M757.499939,278.500000 
	C757.666626,279.833344 757.976257,281.166443 757.978455,282.500031 
	C758.010071,301.499969 758.010010,320.500031 757.978455,339.499969 
	C757.976257,340.833588 757.666687,342.166656 757.500000,343.500000 
"/>
<path fill="none" opacity="1.000000" stroke="#000000" stroke-linecap="round" stroke-linejoin="round" stroke-width="4.000000"
	d="
M57.500000,159.500000 
	C40.000000,159.500000 22.500000,159.500000 5.000000,159.500000 
"/>
<path fill="none" opacity="1.000000" stroke="#000000" stroke-linecap="round" stroke-linejoin="round" stroke-width="4.000000"
	d="
M57.500000,119.500000 
	C40.000000,119.500000 22.500000,119.500000 5.000000,119.500000 
"/>
<path fill="none" opacity="1.000000" stroke="#000000" stroke-linecap="round" stroke-linejoin="round" stroke-width="3.000000"
	d="
M5.500000,199.000000 
	C22.833334,199.000000 40.166668,199.000000 57.500000,199.000000 
"/>
<path fill="none" opacity="1.000000" stroke="#000000" stroke-linecap="round" stroke-linejoin="round" stroke-width="3.000000"
	d="
M5.500000,79.000000 
	C22.833334,79.000000 40.166668,79.000000 57.500000,79.000000 
"/>
<path fill="none" opacity="1.000000" stroke="#000000" stroke-linecap="round" stroke-linejoin="round" stroke-width="4.000000"
	d="
M136.500000,10.500000 
	C136.500000,27.666666 136.500000,44.833332 136.500000,62.000000 
"/>
<path fill="none" opacity="1.000000" stroke="#000000" stroke-linecap="round" stroke-linejoin="round" stroke-width="3.000000"
	d="
M176.000000,10.500000 
	C176.000000,27.666666 176.000000,44.833332 176.000000,62.000000 
"/>
<path fill="none" opacity="1.000000" stroke="#000000" stroke-linecap="round" stroke-linejoin="round" stroke-width="4.000000"
	d="
M96.500000,10.500000 
	C96.500000,27.666666 96.500000,44.833332 96.500000,62.000000 
"/>
<path fill="none" opacity="1.000000" stroke="#000000" stroke-linecap="round" stroke-linejoin="round" stroke-width="4.000000"
	d="
M215.500000,10.500000 
	C215.500000,27.666666 215.500000,44.833332 215.500000,62.000000 
"/>
<path fill="none" opacity="1.000000" stroke="#000000" stroke-linecap="round" stroke-linejoin="round" stroke-width="3.000000"
	d="
M327.000000,260.500000 
	C325.452179,262.112518 326.025055,264.133667 326.020386,266.000061 
	C325.983643,280.666626 326.000000,295.333344 326.000000,310.000000 
"/>
<path fill="none" opacity="1.000000" stroke="#000000" stroke-linecap="round" stroke-linejoin="round" stroke-width="4.000000"
	d="
M693.500000,386.500000 
	C693.500000,392.338104 693.500000,398.176178 693.500000,404.250000 
	C669.666687,404.250000 646.333313,404.250000 622.750000,404.250000 
	C622.750000,392.333344 622.750000,380.666656 622.750000,368.750000 
	C646.333313,368.750000 669.666687,368.750000 693.643066,368.750000 
	C693.118896,374.666656 694.154419,380.333344 693.000000,386.000000 
"/>
<path fill="none" opacity="1.000000" stroke="#000000" stroke-linecap="round" stroke-linejoin="round" stroke-width="3.000000"
	d="
M731.500000,368.500000 
	C737.166687,368.500000 742.833313,368.500000 749.000000,368.500000 
	C749.000000,379.494965 749.045410,390.497833 748.958496,401.499664 
	C748.942688,403.505249 747.905945,404.598480 745.499023,404.560303 
	C736.168091,404.412048 726.831909,404.412048 717.500977,404.560303 
	C715.094055,404.598480 714.057373,403.505249 714.041504,401.499664 
	C713.954590,390.497833 714.000000,379.494965 714.000000,368.339600 
	C719.991211,368.956116 725.532104,367.774689 731.000000,369.000000 
"/>
<path fill="none" opacity="1.000000" stroke="#000000" stroke-linecap="round" stroke-linejoin="round" stroke-width="4.000000"
	d="
M134.500000,216.500000 
	C134.500000,210.833328 134.500000,205.166672 134.500000,199.250000 
	C122.833336,199.250000 111.166664,199.250000 99.750000,199.250000 
	C99.750000,211.002411 99.750000,222.504837 99.750000,234.250000 
	C111.333336,234.250000 122.666664,234.250000 134.500000,234.250000 
	C134.500000,228.343140 134.500000,222.671570 134.500000,217.000000 
"/>
<path fill="none" opacity="1.000000" stroke="#000000" stroke-linecap="round" stroke-linejoin="round" stroke-width="4.000000"
	d="
M208.500000,216.500000 
	C208.500000,210.833328 208.500000,205.166672 208.500000,199.250000 
	C196.833328,199.250000 185.166672,199.250000 173.750000,199.250000 
	C173.750000,211.002411 173.750000,222.504837 173.750000,234.250000 
	C185.333328,234.250000 196.666672,234.250000 208.500000,234.250000 
	C208.500000,228.343140 208.500000,222.671570 208.500000,217.000000 
"/>
<path fill="none" opacity="1.000000" stroke="#000000" stroke-linecap="round" stroke-linejoin="round" stroke-width="4.000000"
	d="
M596.500000,387.500000 
	C596.500000,393.166656 596.500000,398.833344 596.500000,404.540985 
	C595.169434,404.693665 593.835327,404.973297 592.499878,404.979462 
	C583.833374,405.019470 575.164795,404.894165 566.500916,405.049713 
	C562.798340,405.116180 561.310425,403.972443 561.413879,399.997772 
	C561.674194,390.001770 561.500000,379.994446 561.500000,369.750000 
	C573.333313,369.750000 584.666687,369.750000 596.643066,369.750000 
	C596.118896,375.666656 597.154419,381.333344 596.000000,387.000000 
"/>
<path fill="none" opacity="1.000000" stroke="#000000" stroke-linecap="round" stroke-linejoin="round" stroke-width="4.000000"
	d="
M281.500000,216.500000 
	C281.500000,222.166672 281.500000,227.833328 281.500000,233.750000 
	C269.833344,233.750000 258.166656,233.750000 246.750000,233.750000 
	C246.750000,221.997589 246.750000,210.495163 246.750000,198.750000 
	C258.333344,198.750000 269.666656,198.750000 281.643097,198.750000 
	C281.118866,204.666672 282.154449,210.333328 281.000000,216.000000 
"/>
<path fill="none" opacity="1.000000" stroke="#000000" stroke-linecap="round" stroke-linejoin="round" stroke-width="4.000000"
	d="
M265.500000,258.500000 
	C265.500000,275.500000 265.500000,292.500000 265.500000,309.500000 
"/>
<path fill="none" opacity="1.000000" stroke="#000000" stroke-linecap="round" stroke-linejoin="round" stroke-width="3.000000"
	d="
M184.000000,258.500000 
	C184.000000,268.000000 184.000000,277.500000 184.000000,287.000000 
"/>
<path fill="none" opacity="1.000000" stroke="#000000" stroke-linecap="round" stroke-linejoin="round" stroke-width="4.000000"
	d="
M210.500000,258.500000 
	C210.500000,267.833344 210.500000,277.166656 210.500000,286.500000 
"/>
<path fill="none" opacity="1.000000" stroke="#000000" stroke-linecap="round" stroke-linejoin="round" stroke-width="4.000000"
	d="
M157.500000,258.500000 
	C157.500000,267.833344 157.500000,277.166656 157.500000,286.500000 
"/>
<path fill="none" opacity="1.000000" stroke="#000000" stroke-linecap="round" stroke-linejoin="round" stroke-width="4.000000"
	d="
M238.500000,258.500000 
	C238.500000,267.833344 238.500000,277.166656 238.500000,286.500000 
"/>
<path fill="none" opacity="1.000000" stroke="#000000" stroke-linecap="round" stroke-linejoin="round" stroke-width="3.000000"
	d="
M692.500000,386.000000 
	C669.500000,386.000000 646.500000,386.000000 623.500000,386.000000 
"/>
<path fill="none" opacity="1.000000" stroke="#000000" stroke-linecap="round" stroke-linejoin="round" stroke-width="2.000000"
	d="
M134.000000,216.500000 
	C122.666664,216.500000 111.333336,216.500000 100.000000,216.500000 
"/>
<path fill="none" opacity="1.000000" stroke="#000000" stroke-linecap="round" stroke-linejoin="round" stroke-width="2.000000"
	d="
M208.000000,216.500000 
	C196.666672,216.500000 185.333328,216.500000 174.000000,216.500000 
"/>
<path fill="none" opacity="1.000000" stroke="#000000" stroke-linecap="round" stroke-linejoin="round" stroke-width="4.000000"
	d="
M639.500000,369.500000 
	C639.500000,380.833344 639.500000,392.166656 639.500000,403.500000 
"/>
<path fill="none" opacity="1.000000" stroke="#000000" stroke-linecap="round" stroke-linejoin="round" stroke-width="4.000000"
	d="
M658.500000,369.500000 
	C658.500000,380.833344 658.500000,392.166656 658.500000,403.500000 
"/>
<path fill="none" opacity="1.000000" stroke="#000000" stroke-linecap="round" stroke-linejoin="round" stroke-width="4.000000"
	d="
M675.500000,369.500000 
	C675.500000,380.833344 675.500000,392.166656 675.500000,403.500000 
"/>
<path fill="none" opacity="1.000000" stroke="#000000" stroke-linecap="round" stroke-linejoin="round" stroke-width="3.000000"
	d="
M731.000000,369.500000 
	C731.000000,379.000000 730.973938,388.500122 731.022583,397.999878 
	C731.031982,399.834045 731.333374,401.666656 731.500061,403.500000 
"/>
<path fill="none" opacity="1.000000" stroke="#000000" stroke-linecap="round" stroke-linejoin="round" stroke-width="3.000000"
	d="
M280.500000,216.000000 
	C269.500000,216.000000 258.500000,216.000000 247.500000,216.000000 
"/>
<path fill="none" opacity="1.000000" stroke="#000000" stroke-linecap="round" stroke-linejoin="round" stroke-width="3.000000"
	d="
M748.000000,386.000000 
	C737.000000,386.000000 726.000000,386.000000 715.000000,386.000000 
"/>
<path fill="none" opacity="1.000000" stroke="#000000" stroke-linecap="round" stroke-linejoin="round" stroke-width="3.000000"
	d="
M595.500000,387.000000 
	C584.500000,387.000000 573.500000,387.000000 562.500000,387.000000 
"/>
<path fill="none" opacity="1.000000" stroke="#000000" stroke-linecap="round" stroke-linejoin="round" stroke-width="4.000000"
	d="
M116.500000,200.000000 
	C116.500000,211.166672 116.500000,222.333328 116.500000,233.500000 
"/>
<path fill="none" opacity="1.000000" stroke="#000000" stroke-linecap="round" stroke-linejoin="round" stroke-width="4.000000"
	d="
M190.500000,200.000000 
	C190.500000,211.166672 190.500000,222.333328 190.500000,233.500000 
"/>
<path fill="none" opacity="1.000000" stroke="#000000" stroke-linecap="round" stroke-linejoin="round" stroke-width="4.000000"
	d="
M578.500000,370.500000 
	C578.500000,381.500000 578.500000,392.500000 578.500000,403.500000 
"/>
<path fill="none" opacity="1.000000" stroke="#000000" stroke-linecap="round" stroke-linejoin="round" stroke-width="4.000000"
	d="
M263.500000,199.500000 
	C263.500000,210.666672 263.500000,221.833328 263.500000,233.000000 
"/>
</svg>